<svg width="30" height="30" viewBox="0 0 30 30" fill="none" xmlns="http://www.w3.org/2000/svg">
<path d="M6.09375 4.35577C4.74947 4.35577 3.65625 5.45115 3.65625 6.79808V23.8942C3.65625 25.2412 4.74947 26.3365 6.09375 26.3365H14.1632H17.5671H23.1562C24.5005 26.3365 25.5938 25.2412 25.5938 23.8942V6.79808C25.5938 5.45115 24.5005 4.35577 23.1562 4.35577H6.09375ZM6.09375 6.79808H23.1562L23.1586 23.8942H17.5671V19.0526H20.4498L20.8782 15.7254H17.5862V13.6051C17.5862 12.6428 17.8538 11.9928 19.231 11.9928H20.9711V9.02335C20.124 8.93665 19.2736 8.8945 18.4217 8.89694C15.894 8.89694 14.1632 10.4427 14.1632 13.2807V15.7302H11.3068V19.0573H14.1632V23.8942H6.09375V6.79808Z" fill="white"/>
</svg>
