<svg width="23" height="24" viewBox="0 0 23 24" fill="none" xmlns="http://www.w3.org/2000/svg">
<g clip-path="url(#clip0)">
<path d="M16.4094 0.603546H6.09053C2.73216 0.603546 0 3.34109 0 6.70609V17.0455C0 20.4103 2.73216 23.1479 6.09053 23.1479H16.4096C19.7678 23.1479 22.5 20.4103 22.5 17.0455V6.70609C22.5 3.34109 19.7678 0.603546 16.4094 0.603546V0.603546ZM21.1809 17.0455C21.1809 19.6816 19.0405 21.8262 16.4094 21.8262H6.09053C3.45949 21.8262 1.31904 19.6816 1.31904 17.0455V6.70609C1.31904 4.06985 3.45949 1.92519 6.09053 1.92519H16.4096C19.0405 1.92519 21.1809 4.06985 21.1809 6.70609V17.0455Z" fill="white"/>
<path d="M11.2503 5.71143C7.85794 5.71143 5.09814 8.47666 5.09814 11.8757C5.09814 15.2748 7.85794 18.04 11.2503 18.04C14.6427 18.04 17.4025 15.2748 17.4025 11.8757C17.4025 8.47666 14.6427 5.71143 11.2503 5.71143ZM11.2503 16.7184C8.58544 16.7184 6.41719 14.546 6.41719 11.8757C6.41719 9.2056 8.58544 7.03307 11.2503 7.03307C13.9153 7.03307 16.0834 9.2056 16.0834 11.8757C16.0834 14.546 13.9153 16.7184 11.2503 16.7184Z" fill="white"/>
<path d="M17.5493 3.52222C16.5468 3.52222 15.7314 4.33939 15.7314 5.34369C15.7314 6.34817 16.5468 7.16534 17.5493 7.16534C18.5518 7.16534 19.3674 6.34817 19.3674 5.34369C19.3674 4.33921 18.5518 3.52222 17.5493 3.52222ZM17.5493 5.84352C17.2743 5.84352 17.0505 5.61924 17.0505 5.34369C17.0505 5.06798 17.2743 4.84386 17.5493 4.84386C17.8245 4.84386 18.0484 5.06798 18.0484 5.34369C18.0484 5.61924 17.8245 5.84352 17.5493 5.84352Z" fill="white"/>
</g>
<defs>
<clipPath id="clip0">
<rect width="22.5" height="22.5444" fill="white" transform="translate(0 0.603546)"/>
</clipPath>
</defs>
</svg>
