<svg width="30" height="31" viewBox="0 0 30 31" fill="none" xmlns="http://www.w3.org/2000/svg">
<path d="M3.39703 6.86166C1.99613 6.86166 0.929391 8.24192 1.31573 9.59899C2.32165 13.1364 3.81283 16.6004 6.03864 19.3239C8.26444 22.0475 11.2748 24.0216 15.1243 24.4133C16.4057 24.5436 17.5108 23.497 17.5108 22.2276V19.6933C17.5108 19.5352 17.6186 19.4228 17.7415 19.4193C17.7643 19.4188 17.7825 19.4181 17.794 19.4181C18.2361 19.4181 19.1445 19.9731 19.9424 20.8357C20.7404 21.6983 21.4461 22.7662 21.7857 23.3578V23.359C22.1699 24.0271 22.8859 24.4304 23.6473 24.4304H26.6929C28.2098 24.4316 29.2248 22.7147 28.4825 21.3849C27.317 19.2962 24.9919 17.2304 23.8292 16.2001C25.9595 13.856 27.372 11.3015 27.9979 9.60755C28.4702 8.32771 27.4963 6.88735 26.1229 6.88735H23.9488C23.0038 6.88735 22.1227 7.34872 21.7625 8.08722C20.0705 11.5613 18.5623 12.8373 17.4998 13.7563V9.04247C17.4998 7.86645 16.5259 6.89688 15.3563 6.89469L11.5489 6.88857C10.3365 6.88707 9.58467 8.38746 10.3111 9.36048L11.046 10.3463L11.0472 10.3488C11.1731 10.5156 11.2401 10.7156 11.2401 10.9212V10.9224L11.2547 14.8535C9.74036 13.2532 8.09513 9.86353 7.59869 8.35141V8.35019C7.30876 7.46689 6.47466 6.87049 5.55402 6.86778H5.5528L3.39825 6.86166H3.39703ZM3.39703 8.74036L5.54913 8.74648C5.68142 8.74679 5.7787 8.81831 5.81769 8.93728C6.43412 10.8155 8.05372 14.3941 10.1072 16.3983C10.6405 16.9188 11.4232 17.0243 12.0298 16.7774C12.6365 16.5305 13.1309 15.8907 13.1309 15.1397V15.1385L13.1151 10.9212C13.1151 10.307 12.9144 9.70965 12.5462 9.21982L12.545 9.21738L12.2093 8.76849L15.3526 8.77339C15.5167 8.77371 15.6248 8.88086 15.6248 9.04247V13.804C15.6248 15.3288 17.5413 16.2048 18.6937 15.2082H18.6949C19.7512 14.2939 21.6204 12.6623 23.4471 8.9116C23.4894 8.82473 23.4526 8.76605 23.9488 8.76605H26.1229C26.2494 8.76605 26.2865 8.82645 26.2388 8.95563C25.7071 10.3949 24.3503 12.9047 22.3387 15.0761C21.7186 15.7454 21.7439 16.8514 22.4449 17.4734C23.5437 18.4472 25.942 20.6817 26.8455 22.301C26.9282 22.4491 26.866 22.5519 26.6942 22.5517H23.6473C23.5424 22.5517 23.4562 22.5005 23.4105 22.4209C23.0044 21.7136 22.2598 20.5767 21.3182 19.5588C20.3766 18.5408 19.2557 17.5394 17.794 17.5394C17.7526 17.5394 17.7187 17.54 17.6927 17.5406H17.6902H17.689C16.5257 17.5735 15.6358 18.5627 15.6358 19.6933V22.2276C15.6358 22.4224 15.4859 22.5619 15.3135 22.5444C11.9862 22.2059 9.47834 20.5683 7.48883 18.1339C5.49932 15.6994 4.07842 12.459 3.11871 9.08406C3.06506 8.89558 3.18044 8.74036 3.39703 8.74036Z" fill="white"/>
</svg>
